<svg version="1.2" xmlns="http://www.w3.org/2000/svg" viewBox="0 0 25 21" width="25" height="21">
	<title>Babymart Homepage</title>
	<style>
		tspan { white-space:pre } 
		.s0 { fill: #666666 } 
	</style>
	<g id="Menu">
		<path id="Shape 2" fill-rule="evenodd" class="s0" d="m25 5.9l-2.2 7.5c-0.4 1-1.3 1.7-2.4 1.7h-9.6c-1.1 0-2.1-0.8-2.4-1.8l-3.2-11.3c-0.2-0.7-0.8-1.1-1.5-1.1h-2.5c-0.3 0-0.5-0.2-0.5-0.5 0-0.3 0.2-0.5 0.5-0.5h2.5c1.2 0 2.2 0.7 2.5 1.8l0.6 2.2h16.7c0.5 0 0.9 0.3 1.2 0.7 0.3 0.3 0.4 0.8 0.3 1.3zm-1.1-0.7q-0.1-0.2-0.4-0.2h-16.4l2.3 8c0.2 0.6 0.8 1.1 1.4 1.1h9.6c0.6 0 1.2-0.4 1.4-1l2.2-7.5q0.1-0.2-0.1-0.4zm-10 12.9c0 1.2-0.9 2.1-2 2.1-1.2 0-2.1-0.9-2.1-2.1 0-1.1 0.9-2 2.1-2 1.1 0 2 0.9 2 2zm-1 0c0-0.5-0.5-1-1-1-0.6 0-1.1 0.5-1.1 1 0 0.6 0.5 1.1 1.1 1.1 0.5 0 1-0.5 1-1.1zm8.1 0c0 1.2-0.9 2.1-2 2.1-1.2 0-2.1-0.9-2.1-2.1 0-1.1 0.9-2 2.1-2 1.1 0 2 0.9 2 2zm-1 0c0-0.5-0.5-1-1-1-0.6 0-1.1 0.5-1.1 1 0 0.6 0.5 1.1 1.1 1.1 0.5 0 1-0.5 1-1.1z"/>
	</g>
</svg>