<svg version="1.2" xmlns="http://www.w3.org/2000/svg" viewBox="0 0 20 20" width="20" height="20">
	<title>Babymart Homepage</title>
	<style>
		tspan { white-space:pre } 
		.s0 { fill: #666666 } 
	</style>
	<g id="Menu">
		<path id="Shape 4" fill-rule="evenodd" class="s0" d="m2.5 2.5c1.5-1.6 3.6-2.5 5.9-2.5 2.2 0 4.3 0.9 5.9 2.5 1.6 1.5 2.4 3.6 2.4 5.9 0 2-0.7 3.9-2 5.5l4.6 4.6c0.3 0.2 0.3 0.6 0 0.8q-0.1 0.2-0.4 0.2-0.2 0-0.4-0.2l-4.6-4.6c-1.6 1.3-3.5 2-5.5 2-2.3 0-4.4-0.8-5.9-2.4-1.6-1.6-2.5-3.7-2.5-5.9 0-2.3 0.9-4.4 2.5-5.9zm0.8 0.8c1.4-1.4 3.2-2.2 5.1-2.2 1.8 0 3.7 0.8 5.1 2.2 2.8 2.8 2.8 7.4 0 10.2-2.8 2.8-7.4 2.8-10.2 0-2.9-2.8-2.9-7.4 0-10.2z"/>
	</g>
</svg>