<svg version="1.2" xmlns="http://www.w3.org/2000/svg" viewBox="0 0 17 21" width="17" height="21">
	<title>Babymart Homepage</title>
	<style>
		tspan { white-space:pre } 
		.s0 { fill: #666666 } 
	</style>
	<g id="Menu">
		<path id="Shape 1" fill-rule="evenodd" class="s0" d="m16.3 16.5c0 0.8-0.4 2-2.7 2.9-1.4 0.5-3.3 0.8-5.3 0.8-2 0-3.9-0.3-5.3-0.8-2.2-0.9-2.7-2.1-2.7-2.9 0-2.9 1.5-5.4 3.8-6.8q0.4 0.5 0.9 0.9c-2 1.2-3.4 3.4-3.4 5.9 0 1.3 3 2.4 6.7 2.4 3.8 0 6.7-1.1 6.7-2.4 0-2.5-1.3-4.7-3.3-5.9q0.5-0.4 0.9-0.9c2.2 1.4 3.7 3.9 3.7 6.8zm-12.5-11.3c0-2.9 2-5.3 4.5-5.3 2.6 0 4.5 2.4 4.5 5.3 0 2.9-1.9 5.3-4.5 5.3-2.5 0-4.5-2.4-4.5-5.3zm1.4 0c0 2.2 1.4 4 3.1 4 1.8 0 3.2-1.8 3.2-4 0-2.2-1.4-4-3.2-4-1.7 0-3.1 1.8-3.1 4z"/>
	</g>
</svg>